<?xml version="1.0" encoding="UTF-8" standalone="no"?>
<svg
   xmlns:dc="http://purl.org/dc/elements/1.1/"
   xmlns:cc="http://creativecommons.org/ns#"
   xmlns:rdf="http://www.w3.org/1999/02/22-rdf-syntax-ns#"
   xmlns:svg="http://www.w3.org/2000/svg"
   xmlns="http://www.w3.org/2000/svg"
   xmlns:sodipodi="http://sodipodi.sourceforge.net/DTD/sodipodi-0.dtd"
   xmlns:inkscape="http://www.inkscape.org/namespaces/inkscape"
   width="50"
   height="50"
   version="1.1"
   id="svg10"
   sodipodi:docname="b.svg"
   inkscape:version="1.0.1 (3bc2e813f5, 2020-09-07)">
  <metadata
     id="metadata16">
    <rdf:RDF>
      <cc:Work
         rdf:about="">
        <dc:format>image/svg+xml</dc:format>
        <dc:type
           rdf:resource="http://purl.org/dc/dcmitype/StillImage" />
        <dc:title></dc:title>
      </cc:Work>
    </rdf:RDF>
  </metadata>
  <defs
     id="defs14" />
  <sodipodi:namedview
     pagecolor="#ffffff"
     bordercolor="#666666"
     borderopacity="1"
     objecttolerance="10"
     gridtolerance="10"
     guidetolerance="10"
     inkscape:pageopacity="0"
     inkscape:pageshadow="2"
     inkscape:window-width="1346"
     inkscape:window-height="877"
     id="namedview12"
     showgrid="false"
     inkscape:zoom="5.38"
     inkscape:cx="1.6169196"
     inkscape:cy="24.186786"
     inkscape:window-x="0"
     inkscape:window-y="0"
     inkscape:window-maximized="0"
     inkscape:current-layer="svg10"
     inkscape:document-rotation="0" />
  <g
     transform="matrix(0.06609626,0,0,-0.06641094,-0.2456249,1569.948)"
     fill="#000000"
     stroke="none"
     id="g30">
    <path
       d="m 0,23263.556 v -376.444 H 378.23625 756.4725 V 23263.556 23640 H 378.23625 0 Z m 756.1525,0 v -376.125 H 378.23625 0.31999683 v 376.125 376.125 H 378.23625 756.1525 Z"
       id="path2"
       style="stroke-width:0.0319238" />
    <path
       d="m 366.36436,23579.138 c -50.8475,-1.783 -100.73499,-15.892 -145.05455,-41.052 -86.55914,-49.078 -145.182566,-135.927 -157.758441,-233.764 -1.887981,-14.65 -2.527975,-24.969 -2.527975,-40.766 0,-15.796 0.639994,-26.115 2.527975,-40.765 10.431897,-80.99 52.383481,-155.005 116.990841,-206.28 65.72735,-52.199 149.15052,-76.085 233.37369,-66.785 35.96763,3.949 71.80728,14.427 104.63896,30.542 53.27946,26.179 98.30302,66.945 129.66271,117.36 23.80777,38.281 38.94362,80.83 44.73556,125.64 1.75997,13.791 2.46397,24.969 2.46397,40.288 0,18.982 -1.24799,34.173 -4.19195,52.072 -15.10386,90.99 -70.3993,171.533 -150.43051,219.178 -35.23166,20.956 -74.17527,34.874 -114.91087,41.02 -11.87187,1.784 -23.71175,2.835 -37.24763,3.344 -9.43991,0.351 -11.93589,0.351 -22.27178,-0.03 z m 24.67175,-4.745 c 16.99184,-0.764 31.77569,-2.484 47.74354,-5.605 75.39126,-14.682 142.84657,-56.913 189.47012,-118.571 34.65566,-45.861 55.90344,-100.512 61.1834,-157.52 0.99198,-10.637 1.24798,-16.624 1.24798,-29.141 0,-12.516 -0.256,-18.503 -1.24798,-29.141 -8.06392,-86.977 -52.92749,-166.756 -123.51878,-219.592 -40.44759,-30.287 -86.91114,-50.065 -136.79865,-58.25 -46.20754,-7.58 -95.42305,-4.554 -139.67862,8.599 -84.35115,25.096 -154.01447,83.856 -192.350083,162.234 -28.447719,58.186 -37.887625,123.602 -27.135731,187.903 17.247829,103.029 86.207144,190.993 182.846194,233.287 15.00784,6.561 32.09567,12.389 48.57551,16.561 28.60771,7.262 60.35139,10.542 89.6631,9.236 z"
       id="path4"
       style="stroke-width:0.0319238" />
    <path
       d="m 364.63638,23536.908 c -19.1678,-0.924 -36.67163,-3.44 -54.33546,-7.771 -84.28716,-20.733 -153.95048,-80.193 -187.58214,-160.164 -2.59197,-6.115 -4.76795,-11.784 -4.57595,-11.911 0.28799,-0.223 5.08795,-1.847 5.18395,-1.752 0.032,0.06 0.76799,1.911 1.63198,4.109 28.76772,74.46 89.53511,132.583 165.15037,157.966 23.10376,7.771 45.79154,12.134 70.84728,13.695 6.84794,0.414 23.64778,0.414 30.9117,0 48.12752,-2.803 93.72707,-17.963 133.56668,-44.365 45.95154,-30.478 81.0872,-73.696 101.503,-124.908 1.37598,-3.471 2.55997,-6.401 2.62396,-6.465 0.12801,-0.1 4.47996,1.37 5.02395,1.688 0.60799,0.382 -6.27193,16.721 -11.55189,27.389 -21.34379,43.091 -53.47146,79.589 -93.63107,106.437 -45.63154,30.51 -99.19901,46.593 -154.04646,46.211 -4.83196,-0.03 -9.6639,-0.09 -10.7199,-0.159 z"
       id="path6"
       style="stroke-width:0.0319238" />
    <path
       d="m 313.59689,23470.76 c 0,-0.06 0.60799,-0.478 1.37599,-0.924 1.69598,-1.019 5.31195,-4.586 7.10392,-7.07 7.77593,-10.765 9.8559,-23.791 5.75994,-35.797 -2.94396,-8.536 -7.35991,-15.415 -16.51183,-25.574 -7.80791,-8.663 -9.50391,-10.733 -12.38388,-15.065 -5.18395,-7.77 -8.44791,-16.274 -9.43991,-24.363 -1.72798,-14.077 3.51996,-27.772 14.27186,-37.199 2.33599,-2.07 6.55995,-5.032 6.78394,-4.777 0.096,0.06 -0.22399,0.669 -0.64,1.306 -1.21597,1.751 -4.15996,7.452 -5.08794,9.777 -5.72795,14.587 -4.70396,26.752 3.39197,40.001 2.59197,4.204 5.95194,8.344 13.37586,16.338 9.02391,9.746 12.31988,14.236 15.99984,21.689 3.99996,8.185 5.43995,13.694 5.66395,21.847 0.12799,4.3 0.032,6.179 -0.384,8.759 -2.11197,12.612 -10.3679,23.95 -21.1518,29.109 -2.46397,1.146 -5.56795,2.07 -7.13593,2.07 -0.54399,0 -0.99198,-0.06 -0.99198,-0.127 z"
       id="path8"
       style="stroke-width:0.0319238" />
    <path
       d="m 357.56446,23470.473 c 6.62393,-4.108 12.41587,-12.707 14.81585,-21.88 0.99199,-3.853 1.34397,-10.541 0.73599,-14.586 -0.83199,-5.669 -3.19997,-11.911 -6.75194,-17.835 -2.14397,-3.503 -6.59194,-9.459 -9.11991,-12.166 -5.91994,-6.306 -11.99987,-13.599 -14.68785,-17.676 -4.95995,-7.42 -8.12791,-15.287 -9.3119,-22.93 -0.736,-4.777 -0.48,-12.039 0.60799,-16.402 2.04798,-8.185 5.91993,-14.905 11.99988,-20.765 2.68798,-2.579 7.93593,-6.561 8.22392,-6.242 0.032,0.03 -0.70399,1.465 -1.69598,3.121 -8.38391,14.332 -9.75991,28.154 -4.09596,41.275 2.81597,6.497 7.16793,12.612 14.55985,20.51 7.19992,7.644 9.82391,10.701 12.70387,14.778 7.48794,10.573 11.45589,21.752 11.4879,32.517 0,7.038 -1.40799,13.185 -4.47996,19.236 -4.63996,9.268 -13.24787,16.816 -21.50379,18.949 -1.05598,0.287 -2.43198,0.51 -3.00796,0.478 -0.96001,0 -1.02399,-0.03 -0.48,-0.382 z"
       id="path10"
       style="stroke-width:0.0319238" />
    <path
       d="m 401.37202,23470.218 c 1.72798,-0.923 5.50395,-4.554 7.58392,-7.325 1.98399,-2.675 4.38395,-7.07 5.63194,-10.382 1.312,-3.44 2.04798,-7.262 2.23999,-11.72 0.28799,-6.243 -0.736,-11.338 -3.61597,-17.995 -2.62398,-6.019 -7.16793,-12.834 -12.57588,-18.79 -9.4719,-10.478 -11.71189,-13.153 -14.71985,-17.676 -14.04786,-21.115 -12.79987,-44.268 3.23197,-60.065 2.49598,-2.452 6.75194,-5.701 8.12792,-6.21 0.352,-0.159 0.096,0.477 -0.76799,1.911 -4.95996,8.025 -7.83992,16.783 -8.22392,24.809 -0.47999,10.032 3.16798,20.001 10.97589,30.033 1.37598,1.783 5.40795,6.369 8.95992,10.191 9.3759,10.128 12.79986,14.778 16.44783,22.262 3.93597,8.057 5.37594,13.695 5.63194,21.688 0.256,7.548 -0.86399,13.218 -3.77596,19.492 -3.58396,7.739 -10.9119,15.287 -17.88783,18.44 -2.46396,1.114 -5.69593,2.006 -7.19992,2.006 l -1.27998,-0.03 z"
       id="path12"
       style="stroke-width:0.0319238" />
    <path
       d="m 445.56357,23469.932 c 6.23995,-3.95 11.99988,-13.058 14.27186,-22.613 0.86401,-3.535 1.02399,-10.095 0.35201,-14.013 -1.69598,-10.032 -7.16792,-19.809 -17.50383,-31.211 -7.93593,-8.758 -9.8559,-11.083 -12.83187,-15.574 -7.07193,-10.573 -10.5279,-21.847 -9.8879,-32.293 0.67198,-10.988 5.59993,-21.275 13.88786,-28.886 2.49597,-2.326 7.03993,-5.574 7.35993,-5.287 0.096,0.1 -0.19201,0.732 -0.64,1.369 -2.97597,4.523 -5.95194,11.37 -7.32794,16.975 -1.15198,4.586 -1.53597,10.829 -0.92798,15.128 1.40798,9.968 6.84793,19.873 16.60785,30.224 12.57586,13.28 16.83182,19.109 20.86379,28.44 7.61591,17.58 5.40793,34.842 -6.14395,48.218 -4.76794,5.51 -13.56786,10.478 -18.49581,10.478 h -1.11999 z"
       id="path14"
       style="stroke-width:0.0319238" />
    <path
       d="m 123.67877,23335.087 c -0.41599,-0.956 -0.54399,-3.854 -0.73599,-16.338 -0.224,-14.141 -0.256,-15.192 -0.79999,-15.51 -1.31199,-0.796 -1.40799,-0.1 -1.63199,15.956 -0.25599,15.764 -0.31999,16.656 -1.59998,16.656 -0.95999,0 -1.15198,-1.815 -1.63198,-15.032 -0.60799,-16.083 -0.704,-17.421 -1.34399,-17.676 -0.25599,-0.1 -0.576,-0.06 -0.73599,0.1 -0.16,0.159 -0.096,6.815 0.096,15.223 0.38401,14.841 0.32,16.689 -0.63998,16.975 -0.896,0.319 -1.408,-1.497 -2.01598,-7.134 -1.50399,-13.917 -3.19997,-33.472 -3.03997,-34.491 0.35199,-1.752 1.02399,-2.771 2.65596,-3.854 2.71998,-1.847 4.63996,-3.599 5.05596,-4.618 0.38399,-0.891 0.22399,-7.643 -0.992,-45.893 -0.79999,-24.65 -1.40798,-45.415 -1.37598,-46.116 0.064,-1.019 0.256,-1.337 0.95999,-1.687 2.07998,-0.988 8.47992,-0.765 9.9839,0.35 0.448,0.35 0.416,3.662 -0.44799,41.466 -1.27999,55.702 -1.24799,50.798 -0.192,52.39 0.47999,0.764 1.75998,1.879 3.00797,2.675 3.87196,2.516 4.22396,3.249 4.22396,8.695 0,2.229 -0.48,11.306 -1.08799,20.159 -0.83199,12.994 -1.15199,16.275 -1.59999,17.135 -0.67199,1.305 -1.05599,1.305 -1.66399,-0.128 -0.44799,-1.051 -0.44799,-2.93 -0.15999,-15.86 0.288,-12.516 0.288,-14.746 -0.096,-15.128 -0.736,-0.732 -1.40798,-0.191 -1.59998,1.306 -0.096,0.764 -0.25599,7.452 -0.352,14.905 -0.192,13.376 -0.352,15.478 -1.34399,16.274 -0.31999,0.287 -0.51199,0.128 -0.89599,-0.796 z"
       id="path16"
       style="stroke-width:0.0319238" />
    <path
       d="m 628.76176,23335.724 c -5.31195,-1.879 -9.5359,-8.663 -11.26388,-18.185 -1.50399,-8.09 -0.704,-16.179 2.30398,-23.09 1.75997,-4.077 3.51996,-6.433 6.11194,-8.217 3.42396,-2.325 3.51996,-2.675 3.51996,-11.083 0,-5.988 -2.20798,-70.225 -2.71998,-79.493 l -0.19199,-3.408 1.056,-0.573 c 1.47198,-0.764 7.55191,-0.796 9.27989,-0.03 l 1.18399,0.541 -0.16,2.166 c -0.096,1.178 -0.896,17.42 -1.75999,36.083 -1.37598,29.205 -1.56798,35.033 -1.40796,41.881 0.096,4.395 0.35198,8.726 0.51198,9.649 0.35199,1.816 0.256,1.72 5.63194,6.848 4.73596,4.49 5.59995,6.815 6.01594,15.828 0.38399,8.472 -0.83199,15.128 -3.80796,21.179 -3.83996,7.739 -9.43991,11.625 -14.30386,9.905 z"
       id="path18"
       style="stroke-width:0.0319238" />
    <path
       d="m 187.35814,23266.582 c -0.25599,-3.535 0,-11.37 0.67199,-19.428 3.55197,-43.408 22.36778,-84.524 53.15147,-116.086 21.50379,-22.07 47.19955,-38.185 76.41525,-47.963 6.46394,-2.133 18.91181,-5.541 20.3518,-5.541 1.27998,0 0.51199,-0.542 -1.53599,-1.051 -11.35989,-2.962 -24.09575,-8.185 -33.34366,-13.695 -3.39198,-2.038 -9.63191,-6.21 -9.63191,-6.497 0,-0.03 38.17561,-0.1 84.86316,-0.1 h 84.86316 l -1.91997,1.401 c -10.14391,7.516 -25.15177,14.459 -39.80762,18.472 -2.20798,0.605 -3.77597,1.146 -3.51996,1.242 0.25598,0.1 2.71996,0.7 5.43993,1.337 25.69576,6.052 50.78351,18.154 72.2233,34.778 11.90388,9.204 23.99976,21.275 33.31167,33.186 18.01581,23.058 30.33569,49.524 36.19163,77.837 2.62398,12.739 3.55197,21.211 3.77596,34.714 l 0.16,10.414 H 378.30025 187.58214 Z m 218.52583,-13.822 c 0.512,-0.573 0.576,-1.402 0.44801,-9.65 -0.032,-4.968 0,-14.236 0.15998,-20.638 0.416,-19.714 0.38401,-27.612 -0.096,-28.185 -0.44801,-0.542 -1.66399,-0.637 -2.49599,-0.191 -0.51198,0.255 -0.57598,1.401 -0.63998,13.153 -0.064,7.038 -0.16,13.312 -0.256,13.886 l -0.19201,1.019 h -3.00795 -3.00798 v -13.504 c 0,-14.714 0.096,-13.886 -1.79198,-13.886 -1.82399,0 -1.75997,-0.987 -1.79198,29.11 -0.032,26.752 0,27.612 0.576,28.058 0.86397,0.637 1.85598,0.573 2.52796,-0.16 0.544,-0.605 0.576,-1.369 0.35201,-13.758 l -0.224,-13.089 1.98397,0.223 c 1.08801,0.09 2.52798,0.191 3.19998,0.191 h 1.24799 v 13.408 c 0,12.134 0.032,13.503 0.51199,14.013 0.70399,0.764 1.79197,0.764 2.49597,0 z m -77.47123,-3.121 c 2.52798,-0.797 4.47996,-2.58 5.88794,-5.383 1.18399,-2.42 1.21598,-2.516 1.18399,-5.987 -0.064,-5.414 -1.11999,-12.325 -2.87996,-18.631 -0.83199,-2.898 -4.19197,-6.402 -6.20795,-6.402 -0.608,0 -0.63999,-0.191 -0.608,-3.248 0.032,-3.694 0.448,-10.319 0.768,-12.07 0.416,-2.262 -1.27999,-4.077 -2.84797,-3.058 -0.67199,0.446 -0.76799,0.796 -0.96,4.108 -0.12799,1.975 -0.28799,6.02 -0.38399,8.982 -0.064,3.089 -0.288,5.573 -0.48,5.796 -0.19199,0.223 -0.25599,0.732 -0.12799,1.115 0.12799,0.382 0.28801,3.376 0.31999,6.624 0.032,3.249 0.19199,10.86 0.32,16.911 0.28799,12.676 0.19201,12.294 2.87997,11.943 0.86399,-0.127 2.27198,-0.414 3.13597,-0.7 z m 95.39106,-1.879 c 0.64,-0.606 1.50399,-1.784 1.91997,-2.612 2.30398,-4.554 5.34395,-18.504 6.87993,-31.593 0.38401,-3.058 0.86401,-6.784 1.11999,-8.281 0.256,-1.496 0.54399,-4.013 0.67201,-5.605 0.25598,-3.248 -0.064,-3.949 -1.76,-3.949 -0.83198,0 -0.99198,0.159 -1.27997,1.306 -0.19201,0.732 -0.70401,3.79 -1.11999,6.783 -1.08799,7.867 -2.07999,14.3 -2.20799,14.428 -0.12799,0.127 -5.63194,-0.446 -6.81593,-0.733 -0.70399,-0.127 -0.736,-0.287 -0.736,-2.834 0,-1.497 -0.22399,-5.733 -0.51198,-9.459 -0.28799,-3.727 -0.44799,-7.389 -0.35201,-8.122 0.19201,-1.687 -0.76799,-2.802 -2.14396,-2.452 -1.792,0.446 -1.856,0.924 -1.312,8.44 0.288,3.758 0.576,10.955 0.672,16.019 0.16,11.912 1.11999,23.536 2.23997,27.007 0.54399,1.657 1.72798,2.803 2.84798,2.803 0.38399,0 1.21599,-0.509 1.88798,-1.146 z m -43.96758,0.127 c 1.59999,-0.86 2.07999,-1.784 1.40799,-2.771 -0.35199,-0.446 -0.83199,-0.669 -1.59997,-0.669 -0.60799,0 -1.08799,0.128 -1.08799,0.319 0,0.764 -1.18399,0.892 -2.49597,0.318 -1.15201,-0.509 -1.50399,-0.923 -2.30399,-2.643 -1.56798,-3.312 -2.23999,-6.975 -2.46396,-13.44 -0.19201,-6.369 0.12799,-10.669 1.34397,-17.93 1.50399,-8.822 2.52798,-11.434 4.95995,-12.771 1.88799,-1.019 2.87997,-0.765 4.92795,1.273 1.696,1.688 2.20798,1.848 3.13597,1.02 1.02399,-0.924 0.736,-2.007 -1.05598,-3.663 -3.42396,-3.185 -7.10394,-3.089 -10.81589,0.255 -2.11198,1.879 -3.19998,5.223 -4.89596,15.064 -0.92799,5.446 -1.02399,6.497 -1.02399,13.249 -0.064,13.886 1.98398,20.51 6.94394,22.516 1.85598,0.733 3.35995,0.701 5.02393,-0.127 z m -20.19179,-1.72 c 0.416,-0.382 0.32,-1.751 -0.736,-10.382 -0.67198,-5.478 -1.34397,-11.243 -1.50397,-12.835 -0.12801,-1.561 -0.38399,-4.013 -0.576,-5.414 -0.192,-1.402 -0.54399,-5.414 -0.83198,-8.918 -0.736,-9.873 -1.152,-13.216 -1.66399,-13.726 -0.64,-0.637 -1.59999,-0.541 -2.33599,0.191 -0.57598,0.573 -0.63998,0.924 -0.48,2.484 0.096,0.987 0.60801,6.625 1.12,12.485 0.54399,5.86 1.05599,11.051 1.152,11.529 0.28799,1.401 -3.45597,8.439 -8.12793,15.223 -1.11998,1.656 -2.46397,3.471 -2.94397,3.981 -1.21599,1.338 -1.34399,1.911 -0.576,2.866 1.02399,1.306 2.04798,0.988 3.58398,-1.21 4.31994,-6.051 5.56795,-7.898 7.07191,-10.446 l 1.696,-2.866 0.19199,1.21 c 0.096,0.669 0.54399,4.236 1.02399,7.898 0.44799,3.695 0.896,7.007 0.99198,7.421 0.32002,1.305 1.82399,1.592 2.94398,0.509 z m -76.03123,-6.338 c 2.65595,-1.242 4.44795,-4.012 5.21594,-8.025 2.97596,-15.606 -9.05592,-46.721 -19.8078,-51.212 -2.81599,-1.146 -7.23193,-0.223 -11.29589,2.421 -3.16797,2.038 -8.25592,7.134 -11.1039,11.115 -2.71997,3.821 -6.68792,11.72 -7.74392,15.446 -1.56798,5.478 -1.59999,10.669 -0.064,13.981 1.08798,2.325 3.42396,4.777 5.59993,5.828 4.38395,2.134 9.4719,0.542 14.87987,-4.618 l 2.14396,-2.07 v 2.198 c 0,6.051 3.19999,11.21 8.38392,13.663 4.22395,1.974 11.00789,2.611 13.79188,1.273 z m 214.20586,-17.994 c 4.76795,-2.134 8.63992,-10.446 10.55989,-22.612 0.8,-5.159 0.8,-17.994 0,-22.134 -1.40797,-7.198 -3.19996,-10.701 -6.36794,-12.453 -1.63198,-0.892 -1.85598,-0.923 -5.53594,-0.892 -3.39195,0 -4.19195,0.128 -6.87992,1.02 -6.36795,2.102 -13.21588,6.274 -18.46383,11.306 -4.03195,3.885 -5.85594,6.21 -7.58392,9.777 -1.27997,2.611 -1.31198,2.803 -1.31198,5.892 0,2.834 0.096,3.408 0.92799,5.191 1.18399,2.548 3.16797,4.363 5.59995,5.064 3.03996,0.86 8.12791,0.1 11.93588,-1.847 l 1.18398,-0.605 -0.83199,2.165 c -0.736,1.848 -0.86399,2.612 -0.86399,5.638 -0.032,3.28 0.032,3.63 0.99198,5.637 1.21598,2.611 3.26396,4.84 6.01594,6.624 4.31998,2.802 7.77592,3.535 10.6239,2.229 z m -92.99107,-51.816 c 0.35198,-0.414 0.44799,-3.026 0.44799,-13.918 0.032,-7.389 0.16,-20.287 0.28799,-28.727 l 0.28799,-15.319 -0.76797,-0.51 c -0.95999,-0.7 -1.66399,-0.668 -2.272,0.03 -0.41598,0.446 -0.51198,2.516 -0.63997,14.173 -0.096,7.484 -0.22402,13.663 -0.28801,13.758 -0.096,0.06 -1.50399,0.03 -3.16796,-0.06 l -3.03998,-0.191 0.096,-13.28 0.096,-13.281 -0.99198,-0.414 c -0.8,-0.318 -1.08799,-0.318 -1.696,0.1 l -0.76799,0.477 -0.19198,18.791 c -0.12801,10.318 -0.12801,22.962 0,28.058 l 0.19198,9.331 0.76799,0.478 c 0.704,0.478 0.83201,0.478 1.632,-0.127 l 0.86398,-0.637 -0.128,-13.122 -0.12799,-13.121 3.07197,0.1 3.10397,0.1 0.096,13.44 c 0.096,10.159 0.25598,13.599 0.54399,13.949 0.544,0.637 2.04798,0.605 2.59198,-0.06 z m -80.57521,-5.096 c 1.472,-2.835 3.29597,-7.166 6.14394,-14.523 l 2.30399,-5.987 3.64795,10.764 c 3.64798,10.733 3.64798,10.765 4.60795,10.861 1.75999,0.223 1.72801,0.318 1.536,-15.192 -0.16,-13.44 0.12799,-23.058 1.05598,-35.542 0.192,-2.548 0.192,-2.58 -0.64,-2.962 -1.15198,-0.51 -1.11997,-0.542 -1.63198,0.701 -1.11999,2.611 -1.98398,13.694 -2.30396,28.503 l -0.19201,9.969 -1.82399,-5.191 c -2.11198,-6.02 -3.03996,-8.249 -3.48797,-8.249 -1.02397,0 -3.29595,4.108 -6.14393,11.147 -1.66399,4.108 -1.88798,4.458 -1.88798,3.28 0,-0.701 0.44799,-9.714 0.95999,-20 0.92799,-17.835 0.92799,-18.727 0.41599,-19.141 -0.76799,-0.573 -2.17596,-0.541 -2.78397,0.06 -0.35198,0.35 -0.51198,1.114 -0.51198,2.516 0,2.675 -0.544,15.924 -1.12,28.026 -0.44799,9.077 -0.79999,14.172 -1.31198,20.064 -0.19201,2.166 -0.16,2.261 0.54399,2.612 1.27998,0.605 1.44,0.509 2.62397,-1.72 z m 97.75904,0.86 c 2.14397,-1.306 3.83996,-5.255 5.82395,-13.376 1.40798,-5.924 2.49597,-12.039 3.51996,-20.224 0.51199,-4.013 1.15198,-8.758 1.43997,-10.51 0.25601,-1.751 0.48,-4.267 0.48,-5.605 0,-2.42 0,-2.452 -0.95999,-2.834 -0.51199,-0.223 -1.15199,-0.319 -1.40799,-0.223 -0.47998,0.191 -1.21598,3.694 -1.95198,9.363 -0.22399,1.911 -0.76799,5.637 -1.15198,8.344 l -0.736,4.873 -2.91197,-0.191 c -1.63198,-0.128 -3.35997,-0.319 -3.87195,-0.478 l -0.92801,-0.223 -0.22398,-6.21 c -0.096,-3.408 -0.352,-7.835 -0.512,-9.841 -0.19201,-2.007 -0.256,-4.077 -0.16,-4.555 0.35199,-1.783 -1.75999,-2.834 -3.10396,-1.496 -0.736,0.732 -0.8,1.942 -0.28801,7.484 0.16,1.943 0.416,9.013 0.576,15.765 0.28799,11.146 0.70399,17.261 1.63198,24.363 0.416,2.93 1.40798,5.255 2.55997,5.797 1.02399,0.509 0.92798,0.509 2.17599,-0.223 z m -66.30335,-0.701 c 0.92799,-1.783 1.216,-7.229 0.736,-14.045 -0.224,-3.376 -0.44799,-13.344 -0.51201,-22.166 -0.064,-11.179 -0.22399,-16.179 -0.44799,-16.497 -0.192,-0.223 -0.79999,-0.414 -1.31198,-0.414 -0.76799,0 -1.02399,0.191 -1.43999,1.21 -0.44799,1.051 -0.48,3.025 -0.32,16.784 0.096,8.599 0.35201,18.344 0.576,21.656 0.28799,4.491 0.32,7.007 0.064,9.714 -0.28799,3.153 -0.28799,3.726 0.16,4.236 0.79999,0.892 1.88798,0.701 2.49597,-0.478 z m 22.30378,0.573 c 2.39997,-0.86 3.19997,-2.484 1.75998,-3.503 -0.96,-0.669 -1.63198,-0.637 -2.36796,0.159 -0.44801,0.478 -0.83201,0.605 -1.536,0.478 -1.56798,-0.318 -2.46396,-1.115 -3.26396,-2.962 -1.66399,-3.694 -2.112,-6.433 -2.27198,-13.885 -0.192,-7.74 0.096,-11.179 1.53598,-19.237 1.31198,-7.357 2.39997,-9.873 4.79996,-11.083 1.66398,-0.892 2.68797,-0.637 4.51196,1.115 1.91997,1.847 3.23195,2.134 3.80795,0.828 0.48,-0.987 -0.256,-2.357 -1.91999,-3.663 -2.62396,-2.07 -4.86395,-2.452 -7.55191,-1.178 -4.38397,2.038 -5.63194,4.745 -7.74392,16.943 -0.80001,4.682 -0.89599,5.733 -0.89599,13.663 0,6.943 0.12799,9.14 0.57598,11.338 1.408,6.975 3.23197,9.777 7.07195,10.987 1.66397,0.51 2.01597,0.51 3.48795,0 z"
       id="path20"
       style="stroke-width:0.0319238" />
    <path
       d="m 325.88476,23236.899 c -0.384,-15.223 -0.35199,-20.223 0.096,-20.382 0.19201,-0.06 0.92799,0.414 1.59999,1.083 0.96,0.955 1.40799,1.815 1.95198,3.598 1.47198,5 2.97597,17.931 2.33598,20.319 -0.64,2.325 -3.61597,5.478 -5.15195,5.478 -0.51198,0 -0.576,-0.828 -0.832,-10.096 z"
       id="path22"
       style="stroke-width:0.0319238" />
    <path
       d="m 422.29981,23243.619 c -0.67198,-1.082 -1.79198,-14.076 -1.82399,-20.796 0,-2.262 0.032,-2.325 0.736,-2.134 0.384,0.127 2.04799,0.382 3.67997,0.605 2.75197,0.35 2.94398,0.414 2.94398,1.083 0,1.21 -1.50399,7.898 -3.16798,14.108 -1.82399,6.689 -2.07999,7.548 -2.36798,7.134 z"
       id="path24"
       style="stroke-width:0.0319238" />
    <path
       d="m 420.85982,23159.381 c -0.70398,-4.108 -1.02399,-7.58 -1.18397,-13.026 -0.096,-3.057 -0.25601,-6.21 -0.32002,-6.974 l -0.15998,-1.37 1.05598,0.159 c 0.54399,0.1 2.27198,0.351 3.80797,0.574 l 2.81597,0.382 -0.192,1.306 c -0.544,3.758 -4.44796,19.141 -5.18396,20.478 -0.22399,0.382 -0.38399,-0.03 -0.63999,-1.529 z"
       id="path26"
       style="stroke-width:0.0319238" />
    <path
       d="m 120.7988,23169.955 c -1.82398,-0.701 -2.20798,-0.987 -2.11197,-1.465 0.38399,-2.166 6.52793,-16.529 10.59189,-24.842 13.47186,-27.389 30.65569,-51.307 52.47948,-73.123 7.67991,-7.675 11.42389,-11.083 18.65582,-17.102 56.38344,-46.721 127.93472,-68.887 201.182,-62.295 63.58336,5.701 123.13478,33.409 168.63831,78.474 26.78375,26.529 47.61555,57.836 61.56739,92.55 1.34401,3.344 2.432,6.306 2.432,6.561 0,0.446 -4.73596,2.356 -5.02397,2.038 -0.096,-0.06 -1.40799,-3.249 -2.97597,-7.102 -3.32796,-8.249 -5.15195,-12.261 -9.0239,-19.969 -25.85575,-51.434 -67.90334,-93.41 -119.61481,-119.43 -28.28772,-14.236 -59.29542,-23.44 -90.7191,-26.911 -11.99988,-1.338 -14.78386,-1.465 -30.39969,-1.465 -15.13587,0 -18.17584,0.127 -29.11974,1.305 -40.95958,4.332 -81.37518,18.472 -115.99883,40.638 -48.51152,31.052 -85.75916,76.404 -106.27095,129.494 -0.73599,1.943 -1.53599,3.567 -1.69598,3.536 -0.192,-0.03 -1.34399,-0.414 -2.59198,-0.892 z"
       id="path28"
       style="stroke-width:0.0319238" />
  </g>
</svg>
