<svg version="1.0" xmlns="http://www.w3.org/2000/svg"
 width="2364.000000pt" height="2364.000000pt" viewBox="0 0 2364.000000 2364.000000"
 preserveAspectRatio="xMidYMid meet">

<g transform="translate(0.000000,2364.000000) scale(0.100000,-0.100000)"
fill="#eeeeee" stroke="none">
<path d="M0 11820 l0 -11820 11820 0 11820 0 0 11820 0 11820 -11820 0 -11820
0 0 -11820z m23630 0 l0 -11810 -11810 0 -11810 0 0 11810 0 11810 11810 0
11810 0 0 -11810z"/>
<path d="M11449 21729 c-1589 -56 -3148 -499 -4533 -1289 -2705 -1541 -4537
-4268 -4930 -7340 -59 -460 -79 -784 -79 -1280 0 -496 20 -820 79 -1280 326
-2543 1637 -4867 3656 -6477 2054 -1639 4661 -2389 7293 -2097 1124 124 2244
453 3270 959 1665 822 3072 2102 4052 3685 744 1202 1217 2538 1398 3945 55
433 77 784 77 1265 0 596 -39 1073 -131 1635 -472 2857 -2200 5386 -4701 6882
-1101 658 -2318 1095 -3591 1288 -371 56 -741 89 -1164 105 -295 11 -373 11
-696 -1z m771 -149 c531 -24 993 -78 1492 -176 2356 -461 4464 -1787 5921
-3723 1083 -1440 1747 -3156 1912 -4946 31 -334 39 -522 39 -915 0 -393 -8
-581 -39 -915 -252 -2731 -1654 -5236 -3860 -6895 -1264 -951 -2716 -1572
-4275 -1829 -1444 -238 -2982 -143 -4365 270 -2636 788 -4813 2633 -6011 5094
-889 1827 -1184 3881 -848 5900 539 3235 2694 5997 5714 7325 469 206 1003
389 1518 520 894 228 1886 331 2802 290z"/>
<path d="M11395 20403 c-599 -29 -1146 -108 -1698 -244 -2634 -651 -4811
-2518 -5862 -5029 -81 -192 -149 -370 -143 -374 9 -7 159 -58 162 -55 1 2 24
60 51 129 899 2338 2798 4163 5161 4960 722 244 1431 381 2214 430 214 13 739
13 966 0 1504 -88 2929 -564 4174 -1393 1436 -957 2534 -2314 3172 -3922 43
-109 80 -201 82 -203 4 -3 140 43 157 53 19 12 -196 525 -361 860 -667 1353
-1671 2499 -2926 3342 -1426 958 -3100 1463 -4814 1451 -151 -1 -302 -3 -335
-5z"/>
<path d="M9800 18326 c0 -2 19 -15 43 -29 53 -32 166 -144 222 -222 243 -338
308 -747 180 -1124 -92 -268 -230 -484 -516 -803 -244 -272 -297 -337 -387
-473 -162 -244 -264 -511 -295 -765 -54 -442 110 -872 446 -1168 73 -65 205
-158 212 -150 3 2 -7 21 -20 41 -38 55 -130 234 -159 307 -179 458 -147 840
106 1256 81 132 186 262 418 513 282 306 385 447 500 681 125 257 170 430 177
686 4 135 1 194 -12 275 -66 396 -324 752 -661 914 -77 36 -174 65 -223 65
-17 0 -31 -2 -31 -4z"/>
<path d="M11174 18317 c207 -129 388 -399 463 -687 31 -121 42 -331 23 -458
-26 -178 -100 -374 -211 -560 -67 -110 -206 -297 -285 -382 -185 -198 -375
-427 -459 -555 -155 -233 -254 -480 -291 -720 -23 -150 -15 -378 19 -515 64
-257 185 -468 375 -652 84 -81 248 -206 257 -196 1 1 -22 46 -53 98 -262 450
-305 884 -128 1296 88 204 224 396 455 644 225 240 307 336 397 464 234 332
358 683 359 1021 0 221 -44 414 -140 604 -145 291 -414 528 -672 595 -33 9
-76 16 -94 15 -30 0 -32 -1 -15 -12z"/>
<path d="M12543 18309 c54 -29 172 -143 237 -230 62 -84 137 -222 176 -326 41
-108 64 -228 70 -368 9 -196 -23 -356 -113 -565 -82 -189 -224 -403 -393 -590
-296 -329 -366 -413 -460 -555 -439 -663 -400 -1390 101 -1886 78 -77 211
-179 254 -195 11 -5 3 15 -24 60 -155 252 -245 527 -257 779 -15 315 99 628
343 943 43 56 169 200 280 320 293 318 400 464 514 699 123 253 168 430 176
681 8 237 -27 415 -118 612 -112 243 -341 480 -559 579 -77 35 -178 63 -225
63 l-40 -1 38 -20z"/>
<path d="M13924 18300 c195 -124 375 -410 446 -710 27 -111 32 -317 11 -440
-53 -315 -224 -622 -547 -980 -248 -275 -308 -348 -401 -489 -221 -332 -329
-686 -309 -1014 21 -345 175 -668 434 -907 78 -73 220 -175 230 -166 3 3 -6
23 -20 43 -93 142 -186 357 -229 533 -36 144 -48 340 -29 475 44 313 214 624
519 949 393 417 526 600 652 893 238 552 169 1094 -192 1514 -149 173 -424
329 -578 329 l-35 0 48 -30z"/>
<path d="M3865 14066 c-13 -30 -17 -121 -23 -513 -7 -444 -8 -477 -25 -487
-41 -25 -44 -3 -51 501 -8 495 -10 523 -50 523 -30 0 -36 -57 -51 -472 -19
-505 -22 -547 -42 -555 -8 -3 -18 -2 -23 3 -5 5 -3 214 3 478 12 466 10 524
-20 533 -28 10 -44 -47 -63 -224 -47 -437 -100 -1051 -95 -1083 11 -55 32 -87
83 -121 85 -58 145 -113 158 -145 12 -28 7 -240 -31 -1441 -25 -774 -44 -1426
-43 -1448 2 -32 8 -42 30 -53 65 -31 265 -24 312 11 14 11 13 115 -14 1302
-40 1749 -39 1595 -6 1645 15 24 55 59 94 84 121 79 132 102 132 273 0 70 -15
355 -34 633 -26 408 -36 511 -50 538 -21 41 -33 41 -52 -4 -14 -33 -14 -92 -5
-498 9 -393 9 -463 -3 -475 -23 -23 -44 -6 -50 41 -3 24 -8 234 -11 468 -6
420 -11 486 -42 511 -10 9 -16 4 -28 -25z"/>
<path d="M19649 14086 c-166 -59 -298 -272 -352 -571 -47 -254 -22 -508 72
-725 55 -128 110 -202 191 -258 107 -73 110 -84 110 -348 0 -188 -69 -2205
-85 -2496 l-6 -107 33 -18 c46 -24 236 -25 290 -1 l37 17 -5 68 c-3 37 -28
547 -55 1133 -43 917 -49 1100 -44 1315 3 138 11 274 16 303 11 57 8 54 176
215 148 141 175 214 188 497 12 266 -26 475 -119 665 -120 243 -295 365 -447
311z"/>
<path d="M5855 11915 c-8 -111 0 -357 21 -610 111 -1363 699 -2654 1661 -3645
672 -693 1475 -1199 2388 -1506 202 -67 591 -174 636 -174 40 0 16 -17 -48
-33 -355 -93 -753 -257 -1042 -430 -106 -64 -301 -195 -301 -204 0 -1 1193 -3
2652 -3 l2652 0 -60 44 c-317 236 -786 454 -1244 580 -69 19 -118 36 -110 39
8 3 85 22 170 42 803 190 1587 570 2257 1092 372 289 750 668 1041 1042 563
724 948 1555 1131 2444 82 400 111 666 118 1090 l5 327 -5960 0 -5960 0 -7
-95z m6829 -434 c16 -18 18 -44 14 -303 -1 -156 0 -447 5 -648 13 -619 12
-867 -3 -885 -14 -17 -52 -20 -78 -6 -16 8 -18 44 -20 413 -2 221 -5 418 -8
436 l-6 32 -94 0 -94 0 0 -424 c0 -462 3 -436 -56 -436 -57 0 -55 -31 -56 914
-1 840 0 867 18 881 27 20 58 18 79 -5 17 -19 18 -43 11 -432 l-7 -411 62 7
c34 3 79 6 100 6 l39 0 0 421 c0 381 1 424 16 440 22 24 56 24 78 0z m-2421
-98 c79 -25 140 -81 184 -169 37 -76 38 -79 37 -188 -2 -170 -35 -387 -90
-585 -26 -91 -131 -201 -194 -201 -19 0 -20 -6 -19 -102 1 -116 14 -324 24
-379 13 -71 -40 -128 -89 -96 -21 14 -24 25 -30 129 -4 62 -9 189 -12 282 -2
97 -9 175 -15 182 -6 7 -8 23 -4 35 4 12 9 106 10 208 1 102 6 341 10 531 9
398 6 386 90 375 27 -4 71 -13 98 -22z m2981 -59 c20 -19 47 -56 60 -82 72
-143 167 -581 215 -992 12 -96 27 -213 35 -260 8 -47 17 -126 21 -176 8 -102
-2 -124 -55 -124 -26 0 -31 5 -40 41 -6 23 -22 119 -35 213 -34 247 -65 449
-69 453 -4 4 -176 -14 -213 -23 -22 -4 -23 -9 -23 -89 0 -47 -7 -180 -16 -297
-9 -117 -14 -232 -11 -255 6 -53 -24 -88 -67 -77 -56 14 -58 29 -41 265 9 118
18 344 21 503 5 374 35 739 70 848 17 52 54 88 89 88 12 0 38 -16 59 -36z
m-1374 4 c50 -27 65 -56 44 -87 -11 -14 -26 -21 -50 -21 -19 0 -34 4 -34 10 0
24 -37 28 -78 10 -36 -16 -47 -29 -72 -83 -49 -104 -70 -219 -77 -422 -6 -200
4 -335 42 -563 47 -277 79 -359 155 -401 59 -32 90 -24 154 40 53 53 69 58 98
32 32 -29 23 -63 -33 -115 -107 -100 -222 -97 -338 8 -66 59 -100 164 -153
473 -29 171 -32 204 -32 416 -2 436 62 644 217 707 58 23 105 22 157 -4z
m-631 -54 c13 -12 10 -55 -23 -326 -21 -172 -42 -353 -47 -403 -4 -49 -12
-126 -18 -170 -6 -44 -17 -170 -26 -280 -23 -310 -36 -415 -52 -431 -20 -20
-50 -17 -73 6 -18 18 -20 29 -15 78 3 31 19 208 35 392 17 184 33 347 36 362
9 44 -108 265 -254 478 -35 52 -77 109 -92 125 -38 42 -42 60 -18 90 32 41 64
31 112 -38 135 -190 174 -248 221 -328 l53 -90 6 38 c3 21 17 133 32 248 14
116 28 220 31 233 10 41 57 50 92 16z m-2376 -199 c83 -39 139 -126 163 -252
93 -490 -283 -1467 -619 -1608 -88 -36 -226 -7 -353 76 -99 64 -258 224 -347
349 -85 120 -209 368 -242 485 -49 172 -50 335 -2 439 34 73 107 150 175 183
137 67 296 17 465 -145 l67 -65 0 69 c0 190 100 352 262 429 132 62 344 82
431 40z m6694 -565 c149 -67 270 -328 330 -710 25 -162 25 -565 0 -695 -44
-226 -100 -336 -199 -391 -51 -28 -58 -29 -173 -28 -106 0 -131 4 -215 32
-199 66 -413 197 -577 355 -126 122 -183 195 -237 307 -40 82 -41 88 -41 185
0 89 3 107 29 163 37 80 99 137 175 159 95 27 254 3 373 -58 l37 -19 -26 68
c-23 58 -27 82 -27 177 -1 103 1 114 31 177 38 82 102 152 188 208 135 88 243
111 332 70z m-2906 -1627 c11 -13 14 -95 14 -437 1 -232 5 -637 9 -902 l9
-481 -24 -16 c-30 -22 -52 -21 -71 1 -13 14 -16 79 -20 445 -3 235 -7 429 -9
432 -3 2 -47 1 -99 -2 l-95 -6 3 -417 3 -417 -31 -13 c-25 -10 -34 -10 -53 3
l-24 15 -6 590 c-4 324 -4 721 0 881 l6 293 24 15 c22 15 26 15 51 -4 l27 -20
-4 -412 -4 -412 96 3 97 3 3 422 c3 319 8 427 17 438 17 20 64 19 81 -2z
m-2518 -160 c46 -89 103 -225 192 -456 l72 -188 114 338 c114 337 114 338 144
341 55 7 54 10 48 -477 -5 -422 4 -724 33 -1116 6 -80 6 -81 -20 -93 -36 -16
-35 -17 -51 22 -35 82 -62 430 -72 895 l-6 313 -57 -163 c-66 -189 -95 -259
-109 -259 -32 0 -103 129 -192 350 -52 129 -59 140 -59 103 0 -22 14 -305 30
-628 29 -560 29 -588 13 -601 -24 -18 -68 -17 -87 2 -11 11 -16 35 -16 79 0
84 -17 500 -35 880 -14 285 -25 445 -41 630 -6 68 -5 71 17 82 40 19 45 16 82
-54z m3055 27 c67 -41 120 -165 182 -420 44 -186 78 -378 110 -635 16 -126 36
-275 45 -330 8 -55 15 -134 15 -176 0 -76 0 -77 -30 -89 -16 -7 -36 -10 -44
-7 -15 6 -38 116 -61 294 -7 60 -24 177 -36 262 l-23 153 -91 -6 c-51 -4 -105
-10 -121 -15 l-29 -7 -7 -195 c-3 -107 -11 -246 -16 -309 -6 -63 -8 -128 -5
-143 11 -56 -55 -89 -97 -47 -23 23 -25 61 -9 235 5 61 13 283 18 495 9 350
22 542 51 765 13 92 44 165 80 182 32 16 29 16 68 -7z m-2072 -22 c29 -56 38
-227 23 -441 -7 -106 -14 -419 -16 -696 -2 -351 -7 -508 -14 -518 -6 -7 -25
-13 -41 -13 -24 0 -32 6 -45 38 -14 33 -15 95 -10 527 3 270 11 576 18 680 9
141 10 220 2 305 -9 99 -9 117 5 133 25 28 59 22 78 -15z m697 18 c75 -27 100
-78 55 -110 -30 -21 -51 -20 -74 5 -14 15 -26 19 -48 15 -49 -10 -77 -35 -102
-93 -52 -116 -66 -202 -71 -436 -6 -243 3 -351 48 -604 41 -231 75 -310 150
-348 52 -28 84 -20 141 35 60 58 101 67 119 26 15 -31 -8 -74 -60 -115 -82
-65 -152 -77 -236 -37 -137 64 -176 149 -242 532 -25 147 -28 180 -28 429 0
218 4 287 18 356 44 219 101 307 221 345 52 16 63 16 109 0z"/>
<path d="M10184 10983 c-12 -478 -11 -635 3 -640 6 -2 29 13 50 34 30 30 44
57 61 113 46 157 93 563 73 638 -20 73 -113 172 -161 172 -16 0 -18 -26 -26
-317z"/>
<path d="M13197 11194 c-21 -34 -56 -442 -57 -653 0 -71 1 -73 23 -67 12 4 64
12 115 19 86 11 92 13 92 34 0 38 -47 248 -99 443 -57 210 -65 237 -74 224z"/>
<path d="M13152 8549 c-22 -129 -32 -238 -37 -409 -3 -96 -8 -195 -10 -219
l-5 -43 33 5 c17 3 71 11 119 18 l88 12 -6 41 c-17 118 -139 601 -162 643 -7
12 -12 -1 -20 -48z"/>
<path d="M3775 8881 c-57 -22 -69 -31 -66 -46 12 -68 204 -519 331 -780 421
-860 958 -1611 1640 -2296 240 -241 357 -348 583 -537 1762 -1467 3998 -2163
6287 -1956 1987 179 3848 1049 5270 2464 837 833 1488 1816 1924 2906 42 105
76 198 76 206 0 14 -148 74 -157 64 -3 -2 -44 -102 -93 -223 -104 -259 -161
-385 -282 -627 -808 -1615 -2122 -2933 -3738 -3750 -884 -447 -1853 -736
-2835 -845 -375 -42 -462 -46 -950 -46 -473 0 -568 4 -910 41 -1280 136 -2543
580 -3625 1276 -1516 975 -2680 2399 -3321 4066 -23 61 -48 112 -53 111 -6 -1
-42 -13 -81 -28z"/>
</g>
</svg>
