<?xml version="1.0" standalone="no"?>
<!DOCTYPE svg PUBLIC "-//W3C//DTD SVG 20010904//EN"
 "http://www.w3.org/TR/2001/REC-SVG-20010904/DTD/svg10.dtd">
<svg version="1.0" xmlns="http://www.w3.org/2000/svg"
 width="2363.000000pt" height="2363.000000pt" viewBox="0 0 2363.000000 2363.000000"
 preserveAspectRatio="xMidYMid meet">

<g transform="translate(0.000000,2363.000000) scale(0.100000,-0.100000)"
fill="#000000" stroke="none">
<path d="M0 11815 l0 -11815 11815 0 11815 0 0 11815 0 11815 -11815 0 -11815
0 0 -11815z m12095 9915 c454 -14 763 -41 1175 -101 2792 -408 5286 -2003
6845 -4378 958 -1459 1503 -3119 1605 -4881 14 -238 14 -862 0 -1100 -95
-1641 -573 -3192 -1411 -4577 -952 -1571 -2319 -2849 -3951 -3692 -1891 -977
-4069 -1315 -6188 -961 -1848 309 -3549 1129 -4975 2399 -167 149 -607 589
-756 756 -1313 1475 -2143 3238 -2428 5160 -75 505 -104 905 -105 1450 0 506
20 834 79 1295 321 2488 1577 4758 3525 6370 1683 1393 3800 2192 5985 2259
132 4 251 8 265 9 14 1 165 -3 335 -8z"/>
<path d="M11520 21583 c-2887 -89 -5571 -1441 -7366 -3708 -1577 -1992 -2305
-4492 -2053 -7045 200 -2026 1036 -3933 2407 -5490 284 -323 771 -792 1117
-1075 2185 -1792 5019 -2545 7820 -2079 1822 304 3499 1114 4910 2373 167 149
577 559 726 726 1418 1590 2273 3540 2463 5620 55 598 55 1238 0 1830 -147
1597 -688 3130 -1580 4476 -362 546 -770 1045 -1239 1514 -1258 1258 -2817
2142 -4545 2575 -833 209 -1784 310 -2660 283z m650 -1183 c578 -30 1125 -109
1655 -240 2454 -607 4525 -2274 5645 -4545 143 -290 360 -801 360 -848 0 -15
-146 -74 -157 -63 -3 3 -32 73 -64 156 -565 1464 -1549 2756 -2824 3708 -1191
890 -2604 1448 -4080 1611 -317 35 -432 42 -810 48 -596 9 -1075 -28 -1628
-128 -2887 -519 -5306 -2522 -6362 -5269 -27 -69 -50 -127 -51 -129 -3 -3
-153 47 -163 55 -5 4 78 218 154 399 650 1545 1765 2892 3165 3820 1324 877
2791 1353 4405 1428 158 8 580 6 755 -3z m-2251 -2086 c146 -37 301 -132 441
-273 192 -193 313 -432 356 -701 22 -139 15 -385 -15 -523 -60 -278 -203 -571
-408 -835 -24 -31 -133 -153 -241 -271 -224 -243 -341 -387 -420 -516 -234
-384 -279 -747 -142 -1158 37 -109 112 -269 175 -374 30 -49 40 -73 30 -69
-42 16 -172 116 -248 190 -507 495 -547 1225 -104 1892 92 138 145 204 386
472 288 321 424 533 516 803 112 329 73 709 -103 1004 -87 148 -232 308 -319
354 l-38 20 34 1 c19 0 64 -7 100 -16z m1367 -3 c321 -87 624 -402 744 -774
45 -139 63 -254 64 -412 1 -346 -120 -694 -358 -1031 -89 -127 -175 -227 -386
-452 -377 -402 -542 -713 -570 -1075 -21 -283 58 -581 238 -887 27 -47 48 -87
46 -89 -6 -7 -144 91 -211 151 -290 261 -451 609 -454 983 -2 324 98 635 306
950 87 132 183 249 423 514 249 276 417 549 491 800 81 272 65 566 -43 820
-86 203 -247 414 -372 487 -24 14 -44 28 -44 30 0 10 62 2 126 -15z m1364 -2
c141 -39 319 -149 437 -271 132 -137 252 -340 307 -519 44 -146 59 -272 53
-448 -8 -244 -54 -424 -173 -671 -114 -236 -223 -386 -511 -697 -109 -118
-234 -260 -277 -316 -405 -520 -460 -1017 -175 -1590 27 -54 65 -123 85 -154
42 -66 34 -65 -74 10 -159 109 -335 313 -426 495 -196 391 -188 837 24 1277
114 238 207 366 525 720 355 396 511 673 571 1015 31 178 4 429 -66 608 -83
215 -237 425 -382 522 l-60 40 34 0 c18 0 67 -9 108 -21z m1353 5 c266 -69
529 -300 677 -595 211 -422 180 -925 -86 -1414 -108 -198 -241 -366 -549 -695
-321 -343 -486 -639 -535 -959 -17 -112 -8 -328 19 -447 38 -171 116 -362 215
-528 26 -43 45 -80 43 -83 -10 -9 -164 105 -242 178 -309 293 -460 699 -416
1120 26 247 133 532 293 776 82 125 204 273 437 531 455 504 618 972 500 1437
-69 272 -257 555 -445 671 l-39 23 34 1 c18 0 61 -7 94 -16z m-10085 -4271 c7
-24 14 -206 18 -488 4 -247 11 -460 15 -472 10 -26 44 -31 53 -8 3 8 1 221 -5
473 -10 406 -9 462 5 495 8 20 20 37 25 37 18 0 42 -60 47 -114 17 -189 64
-1008 64 -1102 0 -156 -14 -183 -131 -259 -68 -44 -99 -79 -116 -130 -6 -20 1
-502 23 -1460 22 -971 30 -1433 23 -1442 -29 -34 -250 -43 -315 -12 -25 12
-29 21 -32 59 -1 25 18 677 42 1450 43 1340 45 1406 28 1440 -11 23 -52 62
-117 110 -136 103 -134 98 -106 405 41 435 91 940 97 977 3 21 14 48 25 60 19
23 19 23 35 3 14 -18 15 -59 10 -385 -4 -201 -9 -420 -13 -487 -5 -110 -4
-123 11 -129 10 -4 22 -2 28 4 6 6 17 194 29 489 12 294 23 489 30 506 14 34
39 32 56 -3 8 -17 14 -171 19 -497 7 -499 10 -522 51 -497 17 10 18 43 25 486
5 400 9 480 22 512 19 45 36 38 54 -21z m15928 22 c114 -56 244 -237 308 -428
48 -145 59 -234 58 -452 -1 -374 -24 -429 -268 -655 -76 -70 -82 -79 -92 -130
-6 -30 -14 -170 -17 -310 -6 -221 0 -397 44 -1320 28 -586 52 -1093 55 -1128
4 -62 3 -63 -27 -79 -64 -32 -286 -25 -316 10 -6 9 4 391 34 1192 25 649 45
1281 45 1405 -1 276 -1 278 -116 365 -64 49 -88 75 -126 139 -104 173 -151
355 -151 591 -2 412 166 768 388 826 48 13 125 2 181 -26z m-2069 -2382 c-7
-425 -36 -691 -118 -1090 -397 -1925 -1733 -3536 -3564 -4298 -221 -92 -592
-214 -825 -270 -107 -26 -202 -50 -210 -52 -8 -3 39 -20 106 -38 460 -127 908
-334 1234 -571 l74 -54 -2652 0 c-1459 0 -2652 2 -2652 5 0 2 73 53 163 113
287 190 659 363 1017 471 91 27 182 52 203 56 21 4 36 9 34 12 -3 2 -85 24
-183 48 -1457 356 -2719 1242 -3553 2492 -527 792 -852 1683 -961 2640 -25
225 -45 642 -35 766 l7 97 5960 0 5961 0 -6 -327z m-13872 -2875 c104 -282
323 -753 485 -1044 306 -550 638 -1022 1056 -1502 155 -178 540 -566 719 -724
1231 -1088 2713 -1789 4295 -2032 481 -73 733 -91 1310 -91 593 0 843 19 1355
101 2291 368 4358 1706 5650 3654 326 493 574 963 796 1515 49 121 93 220 98
220 29 0 151 -51 151 -63 0 -24 -147 -384 -237 -582 -718 -1577 -1916 -2919
-3401 -3809 -1063 -637 -2261 -1041 -3477 -1171 -332 -35 -432 -41 -800 -47
-483 -7 -845 13 -1295 73 -1551 207 -3033 847 -4253 1837 -421 341 -868 784
-1218 1207 -566 683 -1018 1446 -1355 2284 -47 115 -82 212 -78 215 7 8 135
59 150 60 6 1 28 -45 49 -101z"/>
<path d="M12611 11483 c-22 -18 -22 -20 -22 -439 l1 -421 -62 -7 c-33 -3 -78
-6 -100 -6 l-39 0 7 413 7 414 -24 16 c-31 22 -52 21 -74 -3 -17 -19 -18 -63
-17 -881 1 -765 3 -864 17 -885 16 -24 57 -32 82 -16 10 6 13 107 15 428 l3
419 91 3 92 3 6 -43 c3 -24 7 -220 8 -436 1 -364 3 -394 19 -403 26 -14 65
-11 79 6 12 15 15 526 3 855 -3 91 -5 346 -5 568 0 398 -1 403 -21 417 -28 19
-40 19 -66 -2z"/>
<path d="M10098 11393 c-12 -15 -17 -98 -26 -513 -7 -272 -9 -505 -6 -517 3
-12 1 -38 -6 -57 -8 -24 -8 -41 -1 -54 5 -10 10 -43 11 -73 1 -30 6 -153 11
-274 9 -192 13 -222 29 -239 38 -39 100 11 100 82 0 15 -4 32 -9 38 -5 5 -13
109 -17 232 l-7 222 24 0 c37 0 115 59 159 121 21 29 71 215 94 354 26 148 37
323 25 394 -27 170 -137 272 -315 295 -41 5 -53 3 -66 -11z m174 -126 c23 -18
56 -55 73 -82 28 -46 30 -54 28 -144 -3 -167 -42 -444 -81 -571 -18 -58 -78
-130 -109 -130 -15 0 -16 21 -10 240 4 132 10 348 14 480 7 273 5 268 85 207z"/>
<path d="M13137 11340 c-34 -27 -53 -90 -71 -245 -29 -241 -37 -372 -41 -667
-2 -161 -11 -389 -20 -507 -14 -193 -14 -215 0 -237 23 -35 61 -41 89 -15 19
18 22 29 19 69 -3 26 2 140 11 253 9 113 16 244 16 292 0 85 0 85 28 91 36 8
205 26 208 23 4 -3 40 -246 64 -426 24 -180 39 -257 54 -275 9 -12 17 -12 46
-3 l35 12 -3 95 c-1 52 -11 149 -21 215 -11 66 -25 165 -31 220 -46 407 -143
864 -214 1003 -28 54 -97 122 -125 122 -10 0 -30 -9 -44 -20z m87 -205 c69
-236 129 -482 142 -580 l6 -51 -93 -12 c-52 -6 -105 -15 -118 -19 l-24 -6 7
199 c9 264 37 524 57 524 4 0 15 -25 23 -55z"/>
<path d="M11705 11327 c-27 -14 -62 -37 -77 -53 -132 -142 -176 -610 -99
-1069 63 -373 101 -460 230 -527 56 -28 140 -30 189 -5 18 10 53 37 78 61 54
52 58 90 12 115 -26 15 -28 14 -81 -36 -71 -67 -98 -74 -157 -41 -78 43 -103
107 -150 370 -42 240 -54 392 -47 597 7 198 28 315 77 418 25 54 35 66 72 82
42 18 43 18 64 0 28 -26 79 -25 98 2 31 45 -22 95 -111 105 -38 4 -59 0 -98
-19z"/>
<path d="M11158 11276 c-9 -8 -24 -95 -42 -242 -40 -337 -27 -313 -101 -189
-35 58 -87 138 -116 178 -29 40 -71 98 -92 130 -47 70 -77 81 -114 44 -30 -30
-29 -34 62 -153 139 -184 311 -493 301 -542 -3 -15 -19 -178 -36 -362 -16
-184 -32 -361 -35 -392 -5 -49 -3 -60 15 -78 23 -23 53 -26 73 -6 17 17 21 47
47 376 11 140 25 291 31 335 6 44 14 121 18 170 5 50 26 230 46 402 41 340 41
343 -16 343 -15 0 -34 -6 -41 -14z"/>
<path d="M8615 11089 c-136 -21 -268 -86 -333 -165 -69 -83 -112 -204 -112
-317 l0 -69 -82 77 c-58 53 -108 89 -165 117 -74 37 -91 41 -155 42 -94 0
-150 -25 -224 -98 -96 -96 -132 -218 -113 -381 45 -401 395 -913 727 -1062 74
-34 190 -43 246 -19 295 123 637 899 636 1444 -1 214 -60 355 -174 414 -46 24
-160 32 -251 17z"/>
<path d="M15350 10506 c-146 -60 -259 -160 -313 -274 -30 -63 -32 -73 -31
-177 0 -92 4 -121 25 -176 l26 -66 -53 24 c-91 41 -210 66 -287 60 -120 -10
-192 -62 -246 -177 -23 -48 -26 -68 -26 -155 0 -95 2 -104 38 -179 46 -98 105
-181 188 -267 357 -367 882 -548 1070 -369 44 42 98 153 123 250 35 142 48
295 43 505 -6 217 -23 347 -66 519 -67 263 -166 432 -286 487 -55 26 -137 24
-205 -5z"/>
<path d="M12570 8885 c-9 -11 -14 -120 -17 -438 l-4 -422 -96 -3 -96 -3 7 403
c6 359 5 405 -9 426 -19 26 -66 30 -86 5 -12 -13 -14 -161 -12 -886 2 -854 2
-871 22 -890 17 -17 25 -19 53 -11 l33 10 0 421 0 422 93 3 c52 2 96 -1 99 -6
3 -4 8 -200 11 -435 4 -375 7 -427 21 -438 24 -18 56 -15 76 7 17 18 17 45 9
482 -4 255 -8 659 -9 899 0 353 -3 439 -14 453 -17 20 -64 21 -81 1z"/>
<path d="M10053 8778 c-26 -13 -26 -15 -13 -158 19 -216 48 -776 66 -1303 5
-151 10 -202 21 -213 18 -17 63 -18 86 -1 16 11 15 47 -13 592 -16 319 -30
603 -30 630 0 50 1 49 54 -86 88 -221 164 -359 198 -359 13 0 43 74 108 259
l57 163 6 -318 c11 -520 40 -853 80 -909 11 -14 17 -15 41 -4 28 13 28 13 22
89 -28 353 -38 691 -33 1117 6 492 6 488 -48 481 -30 -3 -30 -4 -144 -342
l-114 -339 -34 89 c-118 314 -228 571 -260 606 -18 20 -20 21 -50 6z"/>
<path d="M13120 8757 c-36 -17 -67 -90 -80 -182 -30 -226 -41 -405 -50 -760
-5 -214 -14 -437 -19 -495 -16 -169 -14 -217 9 -240 40 -40 110 -9 97 42 -4
13 -2 79 4 148 6 69 14 210 18 315 l6 189 35 7 c19 4 73 11 120 14 l85 7 23
-158 c13 -88 32 -222 43 -299 35 -251 42 -269 102 -246 26 10 27 13 27 88 0
43 -7 123 -15 178 -9 55 -27 188 -40 295 -34 265 -59 416 -100 601 -68 303
-125 442 -199 489 -39 24 -34 23 -66 7z m109 -355 c49 -177 94 -369 105 -449
l6 -42 -47 -6 c-27 -3 -79 -10 -116 -16 -38 -6 -70 -9 -71 -8 -6 8 14 428 24
514 19 157 32 220 42 202 5 -9 31 -96 57 -195z"/>
<path d="M11042 8743 c-20 -17 -20 -23 -10 -118 7 -73 6 -167 -4 -350 -18
-348 -18 -1176 1 -1198 16 -20 64 -22 79 -4 8 9 12 179 15 528 2 282 10 596
17 696 9 137 10 209 1 292 -15 157 -44 201 -99 154z"/>
<path d="M11665 8732 c-42 -20 -95 -73 -120 -121 -28 -55 -63 -197 -75 -307
-8 -70 -10 -190 -7 -325 4 -179 10 -243 35 -392 62 -354 106 -449 236 -508 96
-44 229 0 287 95 23 38 24 50 3 70 -27 28 -58 18 -112 -34 -61 -59 -92 -64
-157 -25 -69 40 -95 112 -147 400 -31 174 -32 189 -32 465 -1 262 1 292 21
371 35 137 64 194 112 218 50 26 63 26 86 1 22 -24 43 -25 73 -4 31 21 26 61
-11 88 -39 29 -138 33 -192 8z"/>
</g>
</svg>
