<svg height="512pt" viewBox="0 -38 512.001 512" width="512pt" xmlns="http://www.w3.org/2000/svg"><path d="m307.199219 328.277344v38.65625h-239.015625l-26.371094-.171875-26.792969-8.53125c-3.808593-.941407-6.480469-4.355469-6.484375-8.277344v-324.351563c.027344-9.414062 7.652344-17.039062 17.066406-17.066406h215.894532c3.871094.03125 7.625 1.351563 10.664062 3.753906l31.574219 25.257813c4.035156 3.242187 6.386719 8.136719 6.398437 13.3125v222.207031l15.277344 47.617188c1.183594 2.355468 1.796875 4.957031 1.789063 7.59375zm0 0" fill="#d84315"/><path d="m281.601562 328.277344v38.65625h-213.417968l-26.371094-.171875-26.792969-8.53125c-3.808593-.941407-6.480469-4.355469-6.484375-8.277344v-324.351563c.027344-9.414062 7.652344-17.039062 17.066406-17.066406h190.292969c3.875.03125 7.625 1.351563 10.667969 3.753906l31.570312 25.257813c4.035157 3.242187 6.390626 8.136719 6.402344 13.3125v222.207031l15.273438 47.617188c1.183594 2.355468 1.796875 4.957031 1.792968 7.59375zm0 0" fill="#ff5722"/><path d="m204.800781 196.265625h34.132813c4.714844 0 8.535156 3.820313 8.535156 8.535156v8.53125c0 14.140625-11.460938 25.601563-25.601562 25.601563h-153.597657c-14.140625 0-25.601562-11.460938-25.601562-25.601563v-8.53125c0-4.714843 3.820312-8.535156 8.53125-8.535156zm0 0" fill="#ff9801"/><path d="m128 51.199219h34.132812c22.632813 0 44.339844 8.992187 60.339844 24.996093 16.003906 16 24.996094 37.707032 24.996094 60.339844 0 4.710938-3.820312 8.53125-8.535156 8.53125h-187.734375c-4.710938 0-8.53125-3.820312-8.53125-8.53125 0-47.128906 38.203125-85.335937 85.332031-85.335937zm0 0" fill="#ff9801"/><path d="m409.601562 273.066406h-119.46875v-93.867187h81.921876l26.707031 66.902343zm0 0" fill="#00838f"/><path d="m384 273.066406h-93.867188v-93.867187h56.320313l26.710937 66.902343zm0 0" fill="#00bcd4"/><path d="m372.054688 179.199219h-81.921876v-34.132813h56.664063c6.992187-.007812 13.28125 4.253906 15.871094 10.753906zm0 0" fill="#ff9801"/><path d="m349.867188 179.199219h-59.734376v-34.132813h34.476563c6.992187-.007812 13.285156 4.253906 15.871094 10.753906zm0 0" fill="#fec108"/><path d="m503.46875 281.601562v68.265626c-.003906 4.3125-3.160156 7.976562-7.425781 8.617187l-26.113281 8.363281h-63.828126l-78.335937.085938h-20.566406v-38.65625c.007812-2.636719-.605469-5.238282-1.789063-7.59375l-15.277344-47.617188h204.800782c4.714844 0 8.535156 3.820313 8.535156 8.535156zm0 0" fill="#ff9801"/><path d="m477.867188 281.601562v68.265626c-.003907 4.3125-3.15625 7.976562-7.421876 8.617187l-26.113281 8.363281h-38.230469l-78.335937.085938h-20.566406v-38.65625c.007812-2.636719-.605469-5.238282-1.789063-7.59375l-15.277344-47.617188h179.203126c4.710937 0 8.53125 3.820313 8.53125 8.535156zm0 0" fill="#fec108"/><path d="m8.535156 324.265625 30.71875-23.039063c2.148438-1.609374 3.414063-4.140624 3.414063-6.824218v-17.070313c0-2.683593-1.265625-5.214843-3.414063-6.824219l-30.71875-23.039062zm0 0" fill="#f44335"/><path d="m469.335938 273.066406h25.597656c4.714844 0 8.535156 3.820313 8.535156 8.535156v25.597657h-25.601562c-4.710938 0-8.53125-3.820313-8.53125-8.53125zm0 0" fill="#ff9801"/><path d="m162.132812 383.871094c0 23.566406-19.101562 42.667968-42.664062 42.667968-23.566406 0-42.667969-19.101562-42.667969-42.667968 0-23.5625 19.101563-42.664063 42.667969-42.664063 23.5625 0 42.664062 19.101563 42.664062 42.664063zm0 0" fill="#607d8b"/><path d="m136.40625 383.871094c0 9.355468-7.582031 16.941406-16.9375 16.941406s-16.941406-7.585938-16.941406-16.941406c0-9.355469 7.585937-16.9375 16.941406-16.9375s16.9375 7.582031 16.9375 16.9375zm0 0" fill="#cfd8dc"/><path d="m435.199219 383.828125c0 23.566406-19.101563 42.667969-42.664063 42.667969-4.335937-.011719-8.644531-.644532-12.800781-1.875-20.871094-6.566406-33.394531-27.851563-28.996094-49.28125 4.398438-21.433594 24.296875-36.0625 46.0625-33.875 21.769531 2.1875 38.355469 20.488281 38.398438 42.363281zm0 0" fill="#37474f"/><path d="m409.601562 383.828125c.003907 18.65625-12.082031 35.160156-29.867187 40.792969-17.78125-5.613282-29.871094-22.105469-29.871094-40.75 0-18.644532 12.089844-35.136719 29.871094-40.746094 17.757813 5.613281 29.839844 22.078125 29.867187 40.703125zm0 0" fill="#607d8b"/><path d="m409.472656 383.871094c0 9.355468-7.582031 16.941406-16.9375 16.941406-9.355468 0-16.941406-7.585938-16.941406-16.941406 0-9.355469 7.585938-16.9375 16.941406-16.9375 9.355469 0 16.9375 7.582031 16.9375 16.9375zm0 0" fill="#cfd8dc"/><path d="m409.601562 273.066406h-119.46875v-51.457031c24.917969-8.617187 57.34375-7.507813 97.707032 17.324219 4.011718 2.476562 7.597656 4.863281 10.921875 7.167968zm0 0" fill="#00838f"/><path d="m136.535156 196.265625h-67.15625c-14.445312.300781-26.398437-11.15625-26.710937-25.597656.3125-14.441407 12.265625-25.902344 26.710937-25.601563h151.378906c14.441407-.300781 26.398438 11.160156 26.710938 25.601563-.3125 14.441406-12.269531 25.898437-26.710938 25.597656zm0 0" fill="#f44335"/><path d="m136.535156 145.066406v51.199219c0 9.425781 7.640625 17.066406 17.066406 17.066406 9.425782 0 17.066407-7.640625 17.066407-17.066406v59.734375c0 9.425781 7.640625 17.066406 17.066406 17.066406s17.066406-7.640625 17.066406-17.066406v-110.933594zm0 0" fill="#ffeb3a"/><path d="m401.671875 276.242188-46.933594-117.265626c-1.292969-3.25-4.4375-5.378906-7.933593-5.375h-56.671876v-17.066406h56.707032c10.480468-.03125 19.914062 6.355469 23.78125 16.101563l46.933594 117.257812zm0 0"/><path d="m353.367188 375.46875h-194.644532v-17.066406h194.558594zm0 0"/><path d="m469.929688 375.382812h-38.226563v-17.066406h36.898437l24.839844-7.953125c.410156-.136719.832032-.242187 1.261719-.308593l.230469-68.453126h-204.800782v-17.066406h204.800782c9.425781 0 17.066406 7.640625 17.066406 17.066406v68.265626c.015625 8.230468-5.800781 15.316406-13.875 16.90625l-25.597656 8.199218c-.839844.269532-1.714844.410156-2.597656.410156zm0 0"/><path d="m80.214844 375.46875-38.453125-.171875c-.867188-.003906-1.730469-.140625-2.558594-.402344l-26.792969-8.53125c-7.390625-2.007812-12.4921872-8.753906-12.410156-16.410156v-324.351563c0-14.140624 11.460938-25.601562 25.601562-25.601562h215.894532c5.765625.0429688 11.359375 1.992188 15.90625 5.546875l31.664062 25.335937c6.066406 4.855469 9.597656 12.207032 9.601563 19.976563v94.207031h-17.066407v-94.207031c-.003906-2.601563-1.191406-5.054687-3.226562-6.671875l-31.574219-25.234375c-1.515625-1.1875-3.378906-1.851563-5.304687-1.886719h-215.894532c-4.714843 0-8.535156 3.820313-8.535156 8.535156v324.351563l26.097656 8.285156 37.050782.164063zm0 0"/><path d="m307.199219 375.46875c-4.710938 0-8.53125-3.820312-8.53125-8.535156v-38.648438c.011719-1.3125-.28125-2.613281-.855469-3.796875-.191406-.390625-.359375-.796875-.492188-1.210937l-15.265624-47.609375c-.289063-.835938-.441407-1.714844-.453126-2.601563v-128c0-4.710937 3.820313-8.53125 8.53125-8.53125 4.714844 0 8.535157 3.820313 8.535157 8.53125v126.667969l14.675781 45.773437c1.570312 3.378907 2.382812 7.054688 2.390625 10.777344v38.648438c0 4.714844-3.820313 8.535156-8.535156 8.535156zm0 0"/><path d="m13.652344 331.09375-10.238282-13.652344 30.71875-23.039062v-17.070313l-30.71875-23.039062 10.238282-13.652344 30.722656 23.039063c4.289062 3.230468 6.8125 8.285156 6.824219 13.652343v17.070313c-.011719 5.367187-2.535157 10.421875-6.824219 13.652344zm0 0"/><path d="m290.132812 170.667969h85.335938v17.066406h-85.335938zm0 0"/><path d="m119.46875 435.074219c-28.277344 0-51.199219-22.925781-51.199219-51.203125s22.921875-51.199219 51.199219-51.199219 51.199219 22.921875 51.199219 51.199219c-.035157 28.265625-22.9375 51.167968-51.199219 51.203125zm0-85.335938c-18.851562 0-34.132812 15.28125-34.132812 34.132813 0 18.851562 15.28125 34.132812 34.132812 34.132812s34.132812-15.28125 34.132812-34.132812c0-18.851563-15.28125-34.132813-34.132812-34.132813zm0 0"/><path d="m392.535156 435.074219c-28.277344 0-51.199218-22.925781-51.199218-51.203125s22.921874-51.199219 51.199218-51.199219 51.199219 22.921875 51.199219 51.199219c-.03125 28.265625-22.9375 51.167968-51.199219 51.203125zm0-85.335938c-18.851562 0-34.132812 15.28125-34.132812 34.132813 0 18.851562 15.28125 34.132812 34.132812 34.132812 18.851563 0 34.132813-15.28125 34.132813-34.132812 0-18.851563-15.28125-34.132813-34.132813-34.132813zm0 0"/><path d="m119.46875 435.074219h-68.269531c-4.710938 0-8.53125-3.820313-8.53125-8.535157 0-4.710937 3.820312-8.535156 8.53125-8.535156h68.269531c4.710938 0 8.53125 3.824219 8.53125 8.535156 0 4.714844-3.820312 8.535157-8.53125 8.535157zm0 0"/><path d="m17.066406 435.199219h-8.53125c-4.714844 0-8.535156-3.820313-8.535156-8.53125 0-4.714844 3.820312-8.535157 8.535156-8.535157h8.53125c4.714844 0 8.535156 3.820313 8.535156 8.535157 0 4.710937-3.820312 8.53125-8.535156 8.53125zm0 0"/><path d="m392.535156 435.074219h-68.265625c-4.714843 0-8.535156-3.820313-8.535156-8.535157 0-4.710937 3.820313-8.535156 8.535156-8.535156h68.265625c4.710938 0 8.53125 3.824219 8.53125 8.535156 0 4.714844-3.820312 8.535157-8.53125 8.535157zm0 0"/><path d="m290.132812 435.199219h-8.53125c-4.714843 0-8.535156-3.820313-8.535156-8.53125 0-4.714844 3.820313-8.535157 8.535156-8.535157h8.53125c4.714844 0 8.535157 3.820313 8.535157 8.535157 0 4.710937-3.820313 8.53125-8.535157 8.53125zm0 0"/><path d="m503.46875 315.734375h-25.601562c-9.425782 0-17.066407-7.640625-17.066407-17.066406v-25.601563c0-4.710937 3.820313-8.53125 8.535157-8.53125h34.132812c4.710938 0 8.53125 3.820313 8.53125 8.53125v34.132813c0 4.714843-3.820312 8.535156-8.53125 8.535156zm-25.601562-34.132813v17.066407h17.066406v-17.066407zm0 0"/><path d="m187.734375 281.601562c-14.136719 0-25.601563-11.460937-25.601563-25.601562v-68.265625c0-4.714844 3.820313-8.535156 8.535157-8.535156 4.710937 0 8.53125 3.820312 8.53125 8.535156v68.265625c0 4.714844 3.820312 8.535156 8.535156 8.535156 4.710937 0 8.535156-3.820312 8.535156-8.535156v-110.933594c0-4.710937 3.820313-8.53125 8.53125-8.53125 4.714844 0 8.535157 3.820313 8.535157 8.53125v110.933594c0 14.140625-11.464844 25.601562-25.601563 25.601562zm0 0"/><path d="m153.601562 221.867188c-14.140624 0-25.601562-11.460938-25.601562-25.601563v-51.199219c0-4.710937 3.820312-8.53125 8.535156-8.53125 4.710938 0 8.53125 3.820313 8.53125 8.53125v51.199219c0 4.714844 3.820313 8.535156 8.535156 8.535156 4.710938 0 8.53125-3.820312 8.53125-8.535156v-8.53125c0-4.714844 3.820313-8.535156 8.535157-8.535156 4.710937 0 8.53125 3.820312 8.53125 8.535156v8.53125c0 14.140625-11.460938 25.601563-25.597657 25.601563zm0 0"/><path d="m170.667969 247.46875h-102.398438c-18.851562 0-34.136719-15.285156-34.136719-34.136719v-8.53125c0-9.425781 7.640626-17.066406 17.066407-17.066406h85.335937c4.710938 0 8.53125 3.820313 8.53125 8.53125 0 4.714844-3.820312 8.535156-8.53125 8.535156h-85.335937v8.53125c0 9.425781 7.644531 17.070313 17.070312 17.070313h102.398438c4.710937 0 8.53125 3.820312 8.53125 8.53125 0 4.714844-3.820313 8.535156-8.53125 8.535156zm0 0"/><path d="m221.867188 247.46875h-17.066407c-4.710937 0-8.53125-3.820312-8.53125-8.535156 0-4.710938 3.820313-8.53125 8.53125-8.53125h17.066407c9.425781 0 17.066406-7.644532 17.066406-17.070313v-8.53125h-34.132813c-4.710937 0-8.53125-3.820312-8.53125-8.535156 0-4.710937 3.820313-8.53125 8.53125-8.53125h34.132813c9.425781 0 17.066406 7.640625 17.066406 17.066406v8.53125c0 18.851563-15.28125 34.136719-34.132812 34.136719zm0 0"/><path d="m220.757812 204.800781h-8.910156c-4.710937 0-8.53125-3.820312-8.53125-8.535156 0-4.710937 3.820313-8.53125 8.53125-8.53125h8.910156c9.425782 0 17.066407-7.640625 17.066407-17.066406s-7.640625-17.066407-17.066407-17.066407h-151.378906c-9.425781 0-17.070312 7.640626-17.070312 17.066407s7.644531 17.066406 17.070312 17.066406h67.15625c4.710938 0 8.53125 3.820313 8.53125 8.53125 0 4.714844-3.820312 8.535156-8.53125 8.535156h-67.15625c-18.851562 0-34.136718-15.28125-34.136718-34.132812 0-18.851563 15.285156-34.132813 34.136718-34.132813h151.378906c18.851563 0 34.132813 15.28125 34.132813 34.132813 0 18.851562-15.28125 34.132812-34.132813 34.132812zm0 0"/><path d="m238.933594 153.601562h-187.734375c-9.425781 0-17.066407-7.640624-17.066407-17.066406.0625-51.816406 42.050782-93.808594 93.867188-93.867187h34.132812c51.816407.058593 93.808594 42.050781 93.867188 93.867187 0 9.425782-7.640625 17.066406-17.066406 17.066406zm-110.933594-93.867187c-42.394531.050781-76.746094 34.40625-76.800781 76.800781h187.734375c-.050782-42.394531-34.40625-76.75-76.800782-76.800781zm0 0"/><path d="m128 85.332031c0 4.714844-3.820312 8.535157-8.53125 8.535157-4.714844 0-8.535156-3.820313-8.535156-8.535157 0-4.710937 3.820312-8.53125 8.535156-8.53125 4.710938 0 8.53125 3.820313 8.53125 8.53125zm0 0"/><path d="m179.199219 85.332031c0 4.714844-3.820313 8.535157-8.53125 8.535157-4.714844 0-8.535157-3.820313-8.535157-8.535157 0-4.710937 3.820313-8.53125 8.535157-8.53125 4.710937 0 8.53125 3.820313 8.53125 8.53125zm0 0"/><path d="m213.335938 110.933594c0 4.714844-3.820313 8.535156-8.535157 8.535156-4.710937 0-8.53125-3.820312-8.53125-8.535156 0-4.710938 3.820313-8.53125 8.53125-8.53125 4.714844 0 8.535157 3.820312 8.535157 8.53125zm0 0"/><path d="m93.867188 110.933594c0 4.714844-3.820313 8.535156-8.53125 8.535156-4.714844 0-8.535157-3.820312-8.535157-8.535156 0-4.710938 3.820313-8.53125 8.535157-8.53125 4.710937 0 8.53125 3.820312 8.53125 8.53125zm0 0"/></svg>